<?xml version="1.0" standalone="no"?>
<!DOCTYPE svg PUBLIC "-//W3C//DTD SVG 20010904//EN"
 "http://www.w3.org/TR/2001/REC-SVG-20010904/DTD/svg10.dtd">
<svg version="1.0" xmlns="http://www.w3.org/2000/svg"
 width="1438.000000pt" height="905.000000pt" viewBox="0 0 1438.000000 905.000000"
 preserveAspectRatio="xMidYMid meet">
<metadata>
Created by potrace 1.15, written by Peter Selinger 2001-2017
</metadata>
<g transform="translate(0.000000,905.000000) scale(0.100000,-0.100000)"
fill="#000000" stroke="none">
<path d="M6860 6524 c-14 -3 -70 -12 -125 -21 -182 -29 -524 -140 -508 -166 3
-6 1 -7 -5 -3 -6 4 -39 -7 -72 -24 l-61 -31 36 -62 c19 -34 39 -61 45 -60 5 2
6 -5 3 -14 -5 -12 -3 -14 7 -8 9 5 11 4 6 -3 -9 -15 78 -165 89 -155 4 5 5 3
2 -3 -9 -16 122 -246 136 -237 6 3 7 1 3 -5 -9 -14 125 -252 138 -245 5 3 6 1
2 -5 -8 -14 28 -74 39 -64 5 4 5 2 2 -4 -4 -7 15 -48 41 -93 26 -45 55 -98 65
-117 10 -21 22 -32 29 -28 7 4 8 3 4 -4 -9 -14 165 -322 178 -315 5 3 6 1 3
-4 -9 -15 123 -244 136 -236 6 3 7 1 3 -5 -4 -6 -2 -21 4 -32 11 -20 18 -20
995 -20 l985 0 0 73 c0 84 -22 252 -44 352 -24 102 -78 275 -85 271 -3 -2 -7
6 -7 17 -2 23 -88 205 -129 272 -13 22 -27 47 -31 55 -15 32 -83 126 -103 144
-11 11 -21 24 -21 30 0 17 -146 176 -230 251 -90 81 -145 119 -159 110 -7 -3
-8 0 -5 9 4 10 -1 18 -12 23 -11 3 -21 9 -24 13 -13 16 -72 52 -77 47 -3 -4
-13 2 -22 13 -23 26 -130 82 -143 74 -6 -4 -8 -3 -5 4 9 13 -175 91 -313 132
-190 56 -303 72 -535 75 -115 2 -221 1 -235 -1z"/>
<path d="M6047 6250 c-14 -11 -28 -20 -32 -20 -19 0 -211 -144 -268 -202 -21
-21 -41 -38 -45 -38 -9 0 -127 -130 -185 -202 -72 -92 -147 -209 -140 -220 3
-6 1 -8 -5 -4 -17 10 -163 -298 -152 -323 1 -2 -3 -7 -8 -10 -26 -16 -93 -292
-113 -465 -15 -124 -6 -421 15 -535 20 -108 55 -243 78 -306 11 -27 21 -57 23
-66 9 -40 113 -258 141 -296 13 -17 24 -35 24 -40 0 -11 96 -150 140 -204 92
-112 236 -256 252 -251 5 1 7 -2 3 -8 -12 -19 26 -23 43 -4 16 18 120 141 146
174 16 20 159 194 206 250 20 25 74 90 119 145 45 55 89 109 99 120 9 11 81
99 160 195 79 96 153 186 165 200 119 140 246 303 241 311 -3 5 -1 8 5 7 6 -2
31 19 54 46 l44 50 -180 315 c-99 174 -187 324 -196 334 -8 10 -16 23 -17 30
-3 18 -304 541 -316 548 -5 3 -9 9 -8 13 3 10 -121 230 -132 234 -4 2 -8 8 -8
14 0 10 -87 168 -115 211 -11 16 -13 16 -38 -3z"/>
<path d="M7108 4543 c7 -3 10 -8 8 -11 -2 -4 2 -18 10 -32 7 -14 13 -19 14
-12 0 6 5 12 11 12 7 0 9 -9 6 -21 -5 -17 -3 -18 10 -7 14 12 15 11 5 -9 -14
-25 -16 -45 -3 -25 6 10 11 9 22 -4 9 -11 9 -15 2 -10 -9 5 -11 2 -7 -8 3 -9
10 -16 14 -16 5 0 16 -3 26 -7 10 -4 15 -2 11 3 -3 6 3 10 13 11 11 1 22 -2
25 -8 4 -5 -2 -6 -11 -2 -13 5 -15 3 -9 -7 5 -9 4 -11 -3 -6 -15 9 -16 -6 -1
-21 8 -8 7 -13 -2 -18 -7 -5 -10 -4 -6 2 8 12 -30 49 -40 40 -3 -4 -2 -7 3 -7
5 0 18 -16 28 -35 10 -19 23 -32 28 -29 4 3 5 11 1 17 -5 8 -2 8 9 0 8 -7 18
-10 21 -6 4 3 7 -2 7 -12 0 -14 -3 -15 -14 -6 -10 9 -15 8 -19 -4 -4 -8 -1
-14 5 -12 7 1 12 -2 13 -8 1 -16 49 -85 59 -85 5 0 1 10 -10 23 l-19 22 22
-19 c13 -10 20 -22 17 -27 -7 -13 15 -49 30 -49 21 0 40 -27 25 -35 -18 -12
19 -29 63 -30 20 0 40 -4 43 -7 4 -3 -12 -5 -34 -3 -41 3 -61 -7 -40 -21 8 -5
9 -3 4 6 -5 8 -4 11 3 6 6 -4 9 -12 7 -19 -2 -7 10 -28 27 -47 17 -19 27 -29
23 -21 -6 9 -4 12 4 7 6 -4 9 -12 6 -17 -12 -18 30 -47 72 -51 7 -1 10 -5 7
-10 -3 -4 -14 -4 -24 2 -11 6 -21 6 -25 1 -3 -5 4 -12 15 -16 11 -3 20 -13 20
-21 0 -9 5 -12 12 -8 7 4 8 3 4 -5 -7 -11 20 -46 36 -46 10 0 12 -15 2 -23 -4
-4 -4 -1 1 7 6 10 4 12 -4 7 -14 -9 3 -36 23 -36 6 0 4 5 -4 10 -10 6 -11 10
-2 10 6 0 12 6 12 14 0 8 4 17 8 20 9 6 7 -47 -3 -63 -3 -6 -1 -11 5 -11 6 0
9 -4 6 -9 -3 -4 4 -17 16 -27 21 -19 21 -19 9 4 -8 14 -8 22 -1 22 10 0 15
-20 11 -55 -2 -28 16 -6 21 25 3 23 4 22 9 -7 3 -18 2 -30 -3 -27 -4 3 -8 -2
-8 -10 0 -9 5 -16 10 -16 6 0 10 -4 10 -10 0 -5 8 -19 18 -30 9 -11 17 -26 17
-32 0 -6 7 -13 15 -15 13 -4 13 -3 0 7 -13 10 -13 11 0 7 8 -2 14 -10 12 -17
-3 -15 28 -51 38 -45 4 3 14 -3 21 -12 12 -14 12 -16 0 -9 -9 6 -12 5 -9 -5 3
-8 11 -13 18 -11 7 2 9 -5 5 -17 -4 -13 3 -30 23 -53 15 -18 36 -46 45 -61 10
-15 23 -25 29 -21 6 4 8 3 4 -4 -3 -6 -2 -13 4 -17 6 -4 8 -10 5 -15 -3 -5 5
-16 17 -25 13 -8 21 -17 18 -19 -3 -3 -2 -7 2 -11 3 -4 5 1 4 10 -1 9 -9 21
-17 25 -10 7 -8 9 8 7 12 0 20 -4 19 -7 -2 -3 0 -14 5 -25 l8 -20 0 20 c1 11
6 27 11 35 7 11 8 7 6 -14 -2 -16 -10 -34 -18 -40 -13 -9 -13 -13 -2 -24 19
-18 29 -15 13 5 -8 9 0 7 19 -7 17 -13 32 -24 32 -25 0 0 -9 -1 -19 -1 -11 0
-17 5 -14 10 3 5 1 6 -6 2 -14 -9 -5 -23 49 -74 19 -19 28 -30 20 -26 -12 7
-12 4 2 -16 9 -14 23 -24 31 -24 9 1 13 -5 10 -17 -4 -13 0 -19 12 -19 11 0
15 -5 11 -16 -3 -8 -2 -12 4 -9 6 3 10 -1 10 -10 0 -14 2 -14 25 1 14 9 22 20
19 25 -3 5 2 6 12 2 13 -5 15 -2 10 15 -4 12 -2 23 5 28 8 5 9 3 4 -7 -7 -11
-6 -12 7 -2 8 7 17 11 20 8 2 -3 22 11 44 30 21 19 33 34 27 35 -7 0 -13 5
-13 11 0 6 6 9 13 6 6 -2 19 2 27 11 12 14 11 15 -9 9 -18 -4 -20 -3 -11 9 9
10 17 11 32 3 18 -10 19 -9 7 13 -12 22 -11 22 6 8 11 -9 16 -10 11 -2 -4 7
-1 12 8 12 22 0 105 87 94 98 -6 6 -5 13 3 17 8 5 10 4 5 -3 -4 -7 -3 -12 2
-12 5 0 14 12 20 26 8 15 8 23 2 19 -6 -4 -9 -1 -8 6 2 7 -2 13 -9 14 -26 1
-20 11 6 10 16 0 27 -3 25 -7 -2 -4 0 -9 6 -13 5 -3 10 1 10 10 0 9 5 13 10
10 6 -4 10 -3 9 2 -3 17 1 33 9 31 11 -4 14 5 7 24 -4 10 -10 16 -15 13 -4 -2
-5 8 -2 23 l6 27 6 -24 c3 -14 10 -26 16 -28 21 -7 124 162 129 210 1 9 11 26
23 37 24 22 38 63 27 79 -3 7 0 8 9 5 15 -6 22 11 17 39 0 4 4 7 10 7 6 0 9 9
6 20 -3 11 -2 20 2 20 15 0 29 48 24 84 -3 21 0 36 6 36 6 0 8 -8 5 -17 -5
-15 -3 -15 10 1 17 21 22 41 7 32 -5 -3 -11 1 -14 9 -4 9 -1 12 9 8 9 -3 14 2
14 15 0 12 5 24 10 27 6 3 10 12 10 18 0 7 -4 6 -10 -3 -8 -11 -9 -7 -4 15 4
17 13 37 20 46 8 8 14 20 14 25 0 5 -5 2 -10 -6 -8 -13 -10 -12 -10 3 0 9 5
17 10 17 6 0 10 15 10 33 0 18 4 37 10 43 5 5 11 46 12 91 2 44 6 79 10 77 4
-2 3 10 -2 28 -5 17 -6 36 -2 42 5 6 7 17 6 24 -1 6 -2 19 -3 27 -1 13 -111
15 -925 15 -665 0 -927 -3 -932 -11 -4 -7 -9 -8 -13 -1 -3 5 -19 12 -36 14
-16 3 -24 3 -17 1z"/>
</g>
</svg>
